<svg width="24" height="24" viewBox="0 0 24 24" fill="none" xmlns="http://www.w3.org/2000/svg">
<g id="Group 16">
<path id="Ellipse 1" d="M21.9522 11.7769C21.9522 17.5195 17.2969 22.1749 11.5542 22.1749C5.81158 22.1749 1.15625 17.5195 1.15625 11.7769C1.15625 6.03424 5.81158 1.37891 11.5542 1.37891C17.2969 1.37891 21.9522 6.03424 21.9522 11.7769ZM2.72454 11.7769C2.72454 16.6534 6.67773 20.6066 11.5542 20.6066C16.4307 20.6066 20.3839 16.6534 20.3839 11.7769C20.3839 6.90039 16.4307 2.9472 11.5542 2.9472C6.67773 2.9472 2.72454 6.90039 2.72454 11.7769Z" fill="#68BCFF"/>
<g id="Group 2">
<g id="Group 1">
<circle id="Ellipse 3" cx="11.6038" cy="2.03157" r="1.1761" fill="#FFFEFD"/>
<path id="Ellipse 2" d="M13.6351 2.03144C13.6351 3.15337 12.7256 4.06288 11.6037 4.06288C10.4818 4.06288 9.57227 3.15337 9.57227 2.03144C9.57227 0.909507 10.4818 0 11.6037 0C12.7256 0 13.6351 0.909507 13.6351 2.03144ZM10.6054 2.03144C10.6054 2.58279 11.0524 3.02974 11.6037 3.02974C12.1551 3.02974 12.602 2.58279 12.602 2.03144C12.602 1.48009 12.1551 1.03314 11.6037 1.03314C11.0524 1.03314 10.6054 1.48009 10.6054 2.03144Z" fill="#68BCFF"/>
</g>
</g>
<g id="Group 8">
<g id="Group 1_2">
<circle id="Ellipse 3_2" cx="11.6038" cy="21.012" r="1.1761" fill="#FFFEFD"/>
<path id="Ellipse 2_2" d="M13.6351 21.0119C13.6351 22.1338 12.7256 23.0433 11.6037 23.0433C10.4818 23.0433 9.57227 22.1338 9.57227 21.0119C9.57227 19.89 10.4818 18.9805 11.6037 18.9805C12.7256 18.9805 13.6351 19.89 13.6351 21.0119ZM10.6054 21.0119C10.6054 21.5633 11.0524 22.0102 11.6037 22.0102C12.1551 22.0102 12.602 21.5633 12.602 21.0119C12.602 20.4606 12.1551 20.0136 11.6037 20.0136C11.0524 20.0136 10.6054 20.4606 10.6054 21.0119Z" fill="#68BCFF"/>
</g>
</g>
<g id="Group 9">
<g id="Group 1_3">
<circle id="Ellipse 3_3" cx="21.5062" cy="11.6048" r="1.1761" fill="#FFFEFD"/>
<path id="Ellipse 2_3" d="M23.5375 11.6047C23.5375 12.7266 22.628 13.6361 21.506 13.6361C20.3841 13.6361 19.4746 12.7266 19.4746 11.6047C19.4746 10.4827 20.3841 9.57324 21.506 9.57324C22.628 9.57324 23.5375 10.4827 23.5375 11.6047ZM20.5077 11.6047C20.5077 12.156 20.9547 12.603 21.506 12.603C22.0574 12.603 22.5044 12.156 22.5044 11.6047C22.5044 11.0533 22.0574 10.6064 21.506 10.6064C20.9547 10.6064 20.5077 11.0533 20.5077 11.6047Z" fill="#68BCFF"/>
</g>
</g>
<g id="Group 11">
<g id="Group 1_4">
<circle id="Ellipse 3_4" cx="2.03157" cy="11.7698" r="1.1761" fill="#FFFEFD"/>
<path id="Ellipse 2_4" d="M4.06288 11.6047C4.06288 12.7266 3.15337 13.6361 2.03144 13.6361C0.909507 13.6361 0 12.7266 0 11.6047C0 10.4827 0.909507 9.57324 2.03144 9.57324C3.15337 9.57324 4.06288 10.4827 4.06288 11.6047ZM1.03314 11.6047C1.03314 12.156 1.48009 12.603 2.03144 12.603C2.58279 12.603 3.02974 12.156 3.02974 11.6047C3.02974 11.0533 2.58279 10.6064 2.03144 10.6064C1.48009 10.6064 1.03314 11.0533 1.03314 11.6047Z" fill="#68BCFF"/>
</g>
</g>
<g id="Group 12">
<g id="Group 1_5">
<circle id="Ellipse 3_5" cx="4.50813" cy="4.83723" r="1.1761" fill="#FFFEFD"/>
<path id="Ellipse 2_5" d="M6.53944 4.8371C6.53944 5.95904 5.62994 6.86854 4.508 6.86854C3.38607 6.86854 2.47656 5.95904 2.47656 4.8371C2.47656 3.71517 3.38607 2.80566 4.508 2.80566C5.62994 2.80566 6.53944 3.71517 6.53944 4.8371ZM3.5097 4.8371C3.5097 5.38845 3.95666 5.83541 4.508 5.83541C5.05935 5.83541 5.5063 5.38845 5.5063 4.8371C5.5063 4.28576 5.05935 3.8388 4.508 3.8388C3.95666 3.8388 3.5097 4.28576 3.5097 4.8371Z" fill="#68BCFF"/>
</g>
</g>
<g id="Group 13">
<g id="Group 1_6">
<circle id="Ellipse 3_6" cx="18.8655" cy="18.3714" r="1.1761" fill="#FFFEFD"/>
<path id="Ellipse 2_6" d="M20.8969 18.3713C20.8969 19.4932 19.9874 20.4027 18.8654 20.4027C17.7435 20.4027 16.834 19.4932 16.834 18.3713C16.834 17.2494 17.7435 16.3398 18.8654 16.3398C19.9874 16.3398 20.8969 17.2494 20.8969 18.3713ZM17.8671 18.3713C17.8671 18.9226 18.3141 19.3696 18.8654 19.3696C19.4168 19.3696 19.8637 18.9226 19.8637 18.3713C19.8637 17.8199 19.4168 17.373 18.8654 17.373C18.3141 17.373 17.8671 17.8199 17.8671 18.3713Z" fill="#68BCFF"/>
</g>
</g>
<g id="Group 14">
<g id="Group 1_7">
<circle id="Ellipse 3_7" cx="18.8655" cy="4.83723" r="1.1761" fill="#FFFEFD"/>
<path id="Ellipse 2_7" d="M20.8969 4.8371C20.8969 5.95904 19.9874 6.86854 18.8654 6.86854C17.7435 6.86854 16.834 5.95904 16.834 4.8371C16.834 3.71517 17.7435 2.80566 18.8654 2.80566C19.9874 2.80566 20.8969 3.71517 20.8969 4.8371ZM17.8671 4.8371C17.8671 5.38845 18.3141 5.83541 18.8654 5.83541C19.4168 5.83541 19.8637 5.38845 19.8637 4.8371C19.8637 4.28576 19.4168 3.8388 18.8654 3.8388C18.3141 3.8388 17.8671 4.28576 17.8671 4.8371Z" fill="#68BCFF"/>
</g>
</g>
<g id="Group 15">
<g id="Group 1_8">
<circle id="Ellipse 3_8" cx="4.17805" cy="18.3714" r="1.1761" fill="#FFFEFD"/>
<path id="Ellipse 2_8" d="M6.20936 18.3713C6.20936 19.4932 5.29986 20.4027 4.17792 20.4027C3.05599 20.4027 2.14648 19.4932 2.14648 18.3713C2.14648 17.2494 3.05599 16.3398 4.17792 16.3398C5.29986 16.3398 6.20936 17.2494 6.20936 18.3713ZM3.17962 18.3713C3.17962 18.9226 3.62658 19.3696 4.17792 19.3696C4.72927 19.3696 5.17623 18.9226 5.17623 18.3713C5.17623 17.8199 4.72927 17.373 4.17792 17.373C3.62658 17.373 3.17962 17.8199 3.17962 18.3713Z" fill="#68BCFF"/>
</g>
</g>
</g>
</svg>
