<svg width="104" height="105" viewBox="0 0 104 105" fill="none" xmlns="http://www.w3.org/2000/svg">
<g clip-path="url(#clip0_466_4407)">
<rect width="104" height="105" fill="white"/>
<path d="M80.1444 36.0243C80.1444 53.5901 65.9045 67.8299 48.3388 67.8299C30.773 67.8299 16.5332 53.5901 16.5332 36.0243C16.5332 18.4586 30.773 4.21875 48.3388 4.21875C65.9045 4.21875 80.1444 18.4586 80.1444 36.0243ZM21.3303 36.0243C21.3303 50.9407 33.4224 63.0328 48.3388 63.0328C63.2551 63.0328 75.3472 50.9407 75.3472 36.0243C75.3472 21.108 63.2551 9.01589 48.3388 9.01589C33.4224 9.01589 21.3303 21.108 21.3303 36.0243Z" fill="#68BCFF"/>
<circle cx="48.4959" cy="6.21368" r="3.59747" fill="#FFFEFD"/>
<path d="M54.7089 6.21382C54.7089 9.64561 51.9269 12.4276 48.4951 12.4276C45.0633 12.4276 42.2812 9.64561 42.2812 6.21382C42.2812 2.78202 45.0633 0 48.4951 0C51.9269 0 54.7089 2.78202 54.7089 6.21382ZM45.4414 6.21382C45.4414 7.90029 46.8086 9.26745 48.4951 9.26745C50.1815 9.26745 51.5487 7.90029 51.5487 6.21382C51.5487 4.52734 50.1815 3.16018 48.4951 3.16018C46.8086 3.16018 45.4414 4.52734 45.4414 6.21382Z" fill="#68BCFF"/>
<circle cx="48.4959" cy="64.2713" r="3.59747" fill="#FFFEFD"/>
<path d="M54.7089 64.2714C54.7089 67.7032 51.9269 70.4852 48.4951 70.4852C45.0633 70.4852 42.2812 67.7032 42.2812 64.2714C42.2812 60.8396 45.0633 58.0576 48.4951 58.0576C51.9269 58.0576 54.7089 60.8396 54.7089 64.2714ZM45.4414 64.2714C45.4414 65.9579 46.8086 67.3251 48.4951 67.3251C50.1815 67.3251 51.5487 65.9579 51.5487 64.2714C51.5487 62.585 50.1815 61.2178 48.4951 61.2178C46.8086 61.2178 45.4414 62.585 45.4414 64.2714Z" fill="#68BCFF"/>
<circle cx="78.7869" cy="35.4949" r="3.59747" fill="#FFFEFD"/>
<path d="M84.9999 35.4951C84.9999 38.9269 82.2179 41.7089 78.7861 41.7089C75.3543 41.7089 72.5723 38.9269 72.5723 35.4951C72.5723 32.0633 75.3543 29.2812 78.7861 29.2812C82.2179 29.2812 84.9999 32.0633 84.9999 35.4951ZM75.7325 35.4951C75.7325 37.1815 77.0996 38.5487 78.7861 38.5487C80.4726 38.5487 81.8397 37.1815 81.8397 35.4951C81.8397 33.8086 80.4726 32.4414 78.7861 32.4414C77.0996 32.4414 75.7325 33.8086 75.7325 35.4951Z" fill="#68BCFF"/>
<circle cx="19.2147" cy="35.9998" r="3.59747" fill="#FFFEFD"/>
<path d="M25.4276 35.4951C25.4276 38.9269 22.6456 41.7089 19.2138 41.7089C15.782 41.7089 13 38.9269 13 35.4951C13 32.0633 15.782 29.2812 19.2138 29.2812C22.6456 29.2812 25.4276 32.0633 25.4276 35.4951ZM16.1602 35.4951C16.1602 37.1815 17.5273 38.5487 19.2138 38.5487C20.9003 38.5487 22.2674 37.1815 22.2674 35.4951C22.2674 33.8086 20.9003 32.4414 19.2138 32.4414C17.5273 32.4414 16.1602 33.8086 16.1602 35.4951Z" fill="#68BCFF"/>
<circle cx="26.7869" cy="14.7957" r="3.59747" fill="#FFFEFD"/>
<path d="M32.9999 14.7958C32.9999 18.2276 30.2179 21.0097 26.7861 21.0097C23.3543 21.0097 20.5723 18.2276 20.5723 14.7958C20.5723 11.3641 23.3543 8.58203 26.7861 8.58203C30.2179 8.58203 32.9999 11.3641 32.9999 14.7958ZM23.7325 14.7958C23.7325 16.4823 25.0996 17.8495 26.7861 17.8495C28.4726 17.8495 29.8397 16.4823 29.8397 14.7958C29.8397 13.1094 28.4726 11.7422 26.7861 11.7422C25.0996 11.7422 23.7325 13.1094 23.7325 14.7958Z" fill="#68BCFF"/>
<circle cx="70.7088" cy="56.1942" r="3.59747" fill="#FFFEFD"/>
<path d="M76.9218 56.1943C76.9218 59.6261 74.1398 62.4081 70.708 62.4081C67.2762 62.4081 64.4941 59.6261 64.4941 56.1943C64.4941 52.7625 67.2762 49.9805 70.708 49.9805C74.1398 49.9805 76.9218 52.7625 76.9218 56.1943ZM67.6543 56.1943C67.6543 57.8808 69.0215 59.2479 70.708 59.2479C72.3944 59.2479 73.7616 57.8808 73.7616 56.1943C73.7616 54.5078 72.3944 53.1407 70.708 53.1407C69.0215 53.1407 67.6543 54.5078 67.6543 56.1943Z" fill="#68BCFF"/>
<circle cx="70.7088" cy="14.7957" r="3.59747" fill="#FFFEFD"/>
<path d="M76.9218 14.7958C76.9218 18.2276 74.1398 21.0097 70.708 21.0097C67.2762 21.0097 64.4941 18.2276 64.4941 14.7958C64.4941 11.3641 67.2762 8.58203 70.708 8.58203C74.1398 8.58203 76.9218 11.3641 76.9218 14.7958ZM67.6543 14.7958C67.6543 16.4823 69.0215 17.8495 70.708 17.8495C72.3944 17.8495 73.7616 16.4823 73.7616 14.7958C73.7616 13.1094 72.3944 11.7422 70.708 11.7422C69.0215 11.7422 67.6543 13.1094 67.6543 14.7958Z" fill="#68BCFF"/>
<circle cx="25.7772" cy="56.1942" r="3.59747" fill="#FFFEFD"/>
<path d="M31.9901 56.1943C31.9901 59.6261 29.2081 62.4081 25.7763 62.4081C22.3445 62.4081 19.5625 59.6261 19.5625 56.1943C19.5625 52.7625 22.3445 49.9805 25.7763 49.9805C29.2081 49.9805 31.9901 52.7625 31.9901 56.1943ZM22.7227 56.1943C22.7227 57.8808 24.0898 59.2479 25.7763 59.2479C27.4628 59.2479 28.8299 57.8808 28.8299 56.1943C28.8299 54.5078 27.4628 53.1407 25.7763 53.1407C24.0898 53.1407 22.7227 54.5078 22.7227 56.1943Z" fill="#68BCFF"/>
<path d="M1.51705 99V81.5455H5.20739V89.2415H5.4375L11.7188 81.5455H16.142L9.66477 89.3608L16.2188 99H11.804L7.02273 91.8239L5.20739 94.0398V99H1.51705ZM22.9496 99.2557C21.6257 99.2557 20.4808 98.9744 19.5149 98.4119C18.5547 97.8437 17.8132 97.054 17.2905 96.0426C16.7678 95.0256 16.5064 93.8466 16.5064 92.5057C16.5064 91.1534 16.7678 89.9716 17.2905 88.9602C17.8132 87.9432 18.5547 87.1534 19.5149 86.5909C20.4808 86.0227 21.6257 85.7386 22.9496 85.7386C24.2734 85.7386 25.4155 86.0227 26.3757 86.5909C27.3416 87.1534 28.0859 87.9432 28.6087 88.9602C29.1314 89.9716 29.3928 91.1534 29.3928 92.5057C29.3928 93.8466 29.1314 95.0256 28.6087 96.0426C28.0859 97.054 27.3416 97.8437 26.3757 98.4119C25.4155 98.9744 24.2734 99.2557 22.9496 99.2557ZM22.9666 96.4432C23.5689 96.4432 24.0717 96.2727 24.4751 95.9318C24.8786 95.5852 25.1825 95.1136 25.3871 94.517C25.5973 93.9205 25.7024 93.2415 25.7024 92.4801C25.7024 91.7188 25.5973 91.0398 25.3871 90.4432C25.1825 89.8466 24.8786 89.375 24.4751 89.0284C24.0717 88.6818 23.5689 88.5085 22.9666 88.5085C22.3587 88.5085 21.8473 88.6818 21.4325 89.0284C21.0234 89.375 20.7138 89.8466 20.5036 90.4432C20.299 91.0398 20.1967 91.7188 20.1967 92.4801C20.1967 93.2415 20.299 93.9205 20.5036 94.517C20.7138 95.1136 21.0234 95.5852 21.4325 95.9318C21.8473 96.2727 22.3587 96.4432 22.9666 96.4432ZM36.5774 99.2131C35.5831 99.2131 34.6825 98.9574 33.8757 98.446C33.0746 97.929 32.4382 97.1705 31.9666 96.1705C31.5007 95.1648 31.2678 93.9318 31.2678 92.4716C31.2678 90.9716 31.5092 89.7244 31.9922 88.7301C32.4751 87.7301 33.1172 86.983 33.9183 86.4886C34.7251 85.9886 35.6087 85.7386 36.5689 85.7386C37.3018 85.7386 37.9126 85.8636 38.4013 86.1136C38.8956 86.358 39.2933 86.6648 39.5945 87.0341C39.9013 87.3977 40.1342 87.7557 40.2933 88.108H40.4041V81.5455H44.0263V99H40.4467V96.9034H40.2933C40.1229 97.267 39.8814 97.6278 39.5689 97.9858C39.2621 98.3381 38.8615 98.6307 38.3672 98.8636C37.8786 99.0966 37.282 99.2131 36.5774 99.2131ZM37.728 96.3239C38.3132 96.3239 38.8075 96.1648 39.2109 95.8466C39.62 95.5227 39.9325 95.071 40.1484 94.4915C40.37 93.9119 40.4808 93.233 40.4808 92.4545C40.4808 91.6761 40.3729 91 40.157 90.4261C39.9411 89.8523 39.6286 89.4091 39.2195 89.0966C38.8104 88.7841 38.3132 88.6278 37.728 88.6278C37.1314 88.6278 36.6286 88.7898 36.2195 89.1136C35.8104 89.4375 35.5007 89.8864 35.2905 90.4602C35.0803 91.0341 34.9751 91.6989 34.9751 92.4545C34.9751 93.2159 35.0803 93.8892 35.2905 94.4744C35.5064 95.054 35.8161 95.5085 36.2195 95.8381C36.6286 96.1619 37.1314 96.3239 37.728 96.3239ZM55.4062 93.4261V85.9091H59.0369V99H55.5511V96.6222H55.4148C55.1193 97.3892 54.6278 98.0057 53.9403 98.4716C53.2585 98.9375 52.4261 99.1705 51.4432 99.1705C50.5682 99.1705 49.7983 98.9716 49.1335 98.5739C48.4688 98.1761 47.9489 97.6108 47.5739 96.8778C47.2045 96.1449 47.017 95.267 47.0114 94.2443V85.9091H50.642V93.5966C50.6477 94.3693 50.8551 94.9801 51.2642 95.429C51.6733 95.8778 52.2216 96.1023 52.9091 96.1023C53.3466 96.1023 53.7557 96.0028 54.1364 95.804C54.517 95.5994 54.8239 95.2983 55.0568 94.9006C55.2955 94.5028 55.4119 94.0114 55.4062 93.4261ZM65.2308 95.233L65.2393 90.8778H65.7678L69.9609 85.9091H74.1286L68.495 92.4886H67.6342L65.2308 95.233ZM61.9411 99V81.5455H65.5717V99H61.9411ZM70.1229 99L66.2706 93.2983L68.6911 90.733L74.3757 99H70.1229ZM79.1996 95.233L79.2081 90.8778H79.7365L83.9297 85.9091H88.0973L82.4638 92.4886H81.603L79.1996 95.233ZM75.9098 99V81.5455H79.5405V99H75.9098ZM84.0916 99L80.2393 93.2983L82.6598 90.733L88.3445 99H84.0916ZM98.2734 93.4261V85.9091H101.904V99H98.4183V96.6222H98.282C97.9865 97.3892 97.495 98.0057 96.8075 98.4716C96.1257 98.9375 95.2933 99.1705 94.3104 99.1705C93.4354 99.1705 92.6655 98.9716 92.0007 98.5739C91.3359 98.1761 90.8161 97.6108 90.4411 96.8778C90.0717 96.1449 89.8842 95.267 89.8786 94.2443V85.9091H93.5092V93.5966C93.5149 94.3693 93.7223 94.9801 94.1314 95.429C94.5405 95.8778 95.0888 96.1023 95.7763 96.1023C96.2138 96.1023 96.6229 96.0028 97.0036 95.804C97.3842 95.5994 97.6911 95.2983 97.924 94.9006C98.1626 94.5028 98.2791 94.0114 98.2734 93.4261Z" fill="#68BCFF"/>
</g>
<defs>
<clipPath id="clip0_466_4407">
<rect width="104" height="105" fill="white"/>
</clipPath>
</defs>
</svg>
